<?xml version="1.0" encoding="UTF-8"?>
<!DOCTYPE svg PUBLIC "-//W3C//DTD SVG 1.1//EN" "http://www.w3.org/Graphics/SVG/1.1/DTD/svg11.dtd">
<svg version="1.1"
  xmlns="http://www.w3.org/2000/svg"
  xmlns:xlink="http://www.w3.org/1999/xlink" x="0" y="0" width="100" height="26" viewBox="0, 0, 100, 26">
  <g id="Background">
    <rect x="0" y="0" width="100" height="26" fill="#000000" fill-opacity="0"/>
  </g>
  <g id="Layer_1">
    <g>
      <path d="M35.838,25.437 L35.806,25.384 L33.53,21.514 L35.547,19.26 L35.6,19.201 L35.521,19.201 L35.081,19.201 L35.065,19.201 L35.054,19.213 L31.645,23.037 L31.645,19.236 L31.645,19.201 L31.61,19.201 L31.266,19.201 L31.232,19.201 L31.232,19.236 L31.232,25.401 L31.232,25.437 L31.266,25.437 L31.61,25.437 L31.645,25.437 L31.645,25.401 L31.645,23.627 L33.26,21.824 L35.323,25.419 L35.333,25.437 L35.353,25.437 L35.776,25.437 z M43.28,25.437 L43.28,25.401 L43.28,25.093 L43.28,25.059 L43.245,25.059 L39.51,25.059 L39.51,22.442 L42.822,22.442 L42.857,22.442 L42.857,22.407 L42.857,22.108 L42.857,22.072 L42.822,22.072 L39.51,22.072 L39.51,19.58 L43.183,19.58 L43.218,19.58 L43.218,19.545 L43.218,19.236 L43.218,19.201 L43.183,19.201 L39.131,19.201 L39.096,19.201 L39.096,19.236 L39.096,25.401 L39.096,25.437 L39.131,25.437 L43.245,25.437 z M47.243,22.442 L47.243,19.571 L49.321,19.571 C49.866,19.571 50.284,19.723 50.563,20.023 C50.791,20.268 50.916,20.615 50.916,20.998 C50.916,21.664 50.493,22.442 49.304,22.442 z M51.318,25.437 L51.29,25.385 L49.894,22.75 C50.358,22.653 50.735,22.423 50.986,22.083 C51.208,21.783 51.33,21.398 51.33,20.998 C51.33,20.515 51.171,20.079 50.882,19.77 C50.53,19.392 50.005,19.201 49.321,19.201 L46.864,19.201 L46.828,19.201 L46.828,19.236 L46.828,25.401 L46.828,25.437 L46.864,25.437 L47.207,25.437 L47.243,25.437 L47.243,25.401 L47.243,22.804 L49.476,22.804 L50.831,25.418 L50.842,25.437 L50.863,25.437 L51.259,25.437 z M60.762,25.437 L60.762,25.401 L60.762,19.236 L60.762,19.201 L60.727,19.201 L60.26,19.201 L60.241,19.201 L60.231,19.217 L57.83,22.776 L55.436,19.217 L55.426,19.201 L55.407,19.201 L54.941,19.201 L54.905,19.201 L54.905,19.236 L54.905,25.401 L54.905,25.437 L54.941,25.437 L55.275,25.437 L55.31,25.437 L55.31,25.401 L55.31,19.739 L57.8,23.422 L57.83,23.465 L57.859,23.422 L60.348,19.748 L60.348,25.401 L60.348,25.437 L60.384,25.437 L60.727,25.437 z M65.093,23.314 L66.495,19.612 L67.898,23.314 z M69.171,25.437 L69.153,25.389 L66.757,19.224 L66.748,19.201 L66.724,19.201 L66.275,19.201 L66.251,19.201 L66.242,19.224 L63.838,25.389 L63.819,25.437 L63.87,25.437 L64.267,25.437 L64.291,25.437 L64.3,25.414 L64.952,23.684 L68.039,23.684 L68.691,25.414 L68.7,25.437 L68.724,25.437 L69.12,25.437 z M72.686,22.442 L72.686,19.571 L74.765,19.571 C75.311,19.571 75.728,19.723 76.006,20.023 C76.234,20.268 76.359,20.615 76.359,20.998 C76.359,21.664 75.937,22.442 74.748,22.442 z M76.761,25.437 L76.734,25.385 L75.338,22.75 C75.802,22.653 76.178,22.423 76.429,22.083 C76.651,21.783 76.773,21.398 76.773,20.998 C76.773,20.515 76.614,20.079 76.325,19.77 C75.973,19.392 75.449,19.201 74.765,19.201 L72.307,19.201 L72.273,19.201 L72.273,19.236 L72.273,25.401 L72.273,25.437 L72.307,25.437 L72.651,25.437 L72.686,25.437 L72.686,25.401 L72.686,22.804 L74.92,22.804 L76.275,25.418 L76.285,25.437 L76.306,25.437 L76.702,25.437 z M84.964,25.437 L84.933,25.384 L82.655,21.514 L84.673,19.26 L84.726,19.201 L84.647,19.201 L84.206,19.201 L84.191,19.201 L84.18,19.213 L80.772,23.037 L80.772,19.236 L80.772,19.201 L80.736,19.201 L80.392,19.201 L80.358,19.201 L80.358,19.236 L80.358,25.401 L80.358,25.437 L80.392,25.437 L80.736,25.437 L80.772,25.437 L80.772,25.401 L80.772,23.627 L82.386,21.824 L84.449,25.419 L84.459,25.437 L84.479,25.437 L84.903,25.437 z M17.026,25.543 C17.701,25.543 18.28,25.335 18.702,24.943 C19.156,24.522 19.395,23.907 19.395,23.165 L19.395,19.236 L19.395,19.201 L19.36,19.201 L19.017,19.201 L18.981,19.201 L18.981,19.236 L18.981,23.165 C18.981,23.783 18.782,24.299 18.406,24.655 C18.06,24.983 17.57,25.164 17.026,25.164 C16.482,25.164 15.992,24.983 15.645,24.655 C15.269,24.299 15.07,23.783 15.07,23.165 L15.07,19.236 L15.07,19.201 L15.036,19.201 L14.692,19.201 L14.657,19.201 L14.657,19.236 L14.657,23.165 C14.657,23.907 14.896,24.522 15.349,24.943 C15.771,25.335 16.351,25.543 17.026,25.543 M25.78,25.543 C24.872,25.543 24.1,25.228 23.548,24.634 C22.997,24.041 22.706,23.213 22.706,22.24 C22.706,21.321 23.003,20.533 23.563,19.964 C24.122,19.396 24.891,19.095 25.789,19.095 C26.505,19.095 27.209,19.313 27.721,19.692 L27.749,19.713 L27.729,19.741 L27.535,20.014 L27.514,20.044 L27.485,20.022 C27.024,19.674 26.406,19.474 25.789,19.474 C24.198,19.474 23.129,20.586 23.129,22.24 C23.129,23.102 23.38,23.835 23.856,24.36 C24.333,24.886 25.001,25.164 25.789,25.164 C26.479,25.164 27.155,24.921 27.597,24.513 L27.623,24.489 L27.647,24.515 L27.867,24.753 L27.891,24.779 L27.865,24.803 C27.343,25.28 26.603,25.543 25.78,25.543" fill="#4967A9"/>
      <path d="M94.3,13.37 L96.537,12.894 L99.056,5.724 L99.99,5.495 L99.902,4.544 L98.634,4.597 L97.048,4.544 L96.96,5.495 L97.77,5.724 L95.939,11.449 L95.798,9.881 L94.388,5.724 L95.163,5.495 L95.075,4.544 L93.031,4.597 L90.566,4.544 L90.477,5.495 L91.2,5.724 L91.622,6.763 L89.931,11.449 L89.791,9.881 L88.381,5.724 L89.157,5.495 L89.068,4.544 L87.025,4.597 L84.559,4.544 L84.471,5.495 L85.193,5.724 L88.293,13.37 L90.53,12.894 L92.415,7.697 L92.521,8.965 z M78.684,8.014 C78.684,5.988 79.16,5.442 79.741,5.442 C80.41,5.442 81.133,6.605 81.133,9.635 C81.133,11.661 80.675,12.224 80.093,12.224 C79.424,12.224 78.684,11.044 78.684,8.014 M80.393,4.297 C77.892,4.879 75.514,5.953 75.514,9.071 C75.514,11.714 77.275,13.37 79.477,13.37 C82.032,12.77 84.427,11.696 84.427,8.578 C84.427,5.936 82.648,4.297 80.393,4.297 M75.206,13.123 L75.382,12.154 L74.696,11.925 L71.789,8.366 L71.084,7.979 L73.991,5.741 L75.083,5.513 L74.977,4.544 L73.18,4.597 L71.137,4.544 L71.137,5.513 L72.37,5.741 L69.569,7.944 L69.075,8.208 L69.075,0.545 L67.825,0.598 L65.042,1.056 L65.13,2.06 L66.081,2.025 L66.081,11.925 L65.201,12.154 L65.289,13.123 L67.279,13.07 L69.516,13.123 L69.604,12.154 L69.075,11.925 L69.075,8.437 L69.41,9.3 L72.036,13.123 L73.303,13.07 z M60.797,4.491 L59.705,4.561 L57.256,5.037 L57.345,6.041 L58.261,6.006 L58.261,11.925 L57.345,12.154 L57.433,13.123 L59.793,13.07 L63.069,13.123 L63.158,12.154 L61.255,11.925 L61.255,8.508 L61.414,8.331 C61.854,7.856 62.101,7.486 62.541,7.239 L64.655,7.239 L64.655,4.385 L62.876,4.385 L61.115,7.486 z M51.4,7.891 C51.4,6.429 51.804,5.548 52.492,5.548 C53.214,5.548 53.461,6.393 53.461,7.732 z M56.35,8.824 L56.35,7.715 C56.35,5.865 55.293,4.297 52.756,4.297 C48.969,5.354 48.352,7.397 48.352,9.194 C48.352,11.625 50.167,13.37 52.774,13.37 C54.377,12.841 55.293,12.418 56.314,11.467 L55.839,10.603 C55.434,10.885 54.553,11.273 53.637,11.273 C52.333,11.273 51.506,10.216 51.417,8.824 z M39.933,6.429 L39.933,1.936 L41.078,1.708 L40.99,0.756 L38.312,0.809 L35.529,0.756 L35.441,1.708 L36.674,1.936 L36.674,11.925 L35.441,12.154 L35.529,13.123 L38.312,13.07 L40.99,13.123 L41.078,12.154 L39.933,11.925 L39.933,6.905 L40.285,7.68 L44.495,13.123 L46.926,13.07 L48.424,13.123 L48.512,12.154 L47.596,11.925 L43.015,6.711 L42.029,6.341 L46.856,1.936 L48.195,1.708 L48.107,0.756 L45.764,0.809 L43.773,0.756 L43.685,1.708 L44.971,1.936 L40.479,6.164 z M24.908,6.023 L24.908,10.85 C24.908,12.911 26.793,13.37 28.061,13.37 L30.598,12.048 L30.175,11.132 C29.682,11.397 29.294,11.573 28.766,11.573 C28.308,11.573 27.903,11.185 27.903,10.463 L27.903,6.023 L30.087,6.023 L30.087,4.967 L27.885,4.967 L27.885,2.272 L26.846,2.272 L24.908,3.681 L24.908,4.932 L24.115,4.932 L23.393,5.707 L23.393,6.023 z M22.319,4.491 L20.787,4.561 L18.426,5.125 L18.514,6.094 L19.325,6.023 L19.325,10.674 L19.042,10.868 C18.708,11.097 18.408,11.238 18.144,11.238 C17.457,11.238 17.211,10.885 17.211,10.216 L17.211,4.491 L15.678,4.561 L13.229,5.125 L13.318,6.094 L14.128,6.023 L14.128,10.762 C14.128,12.858 15.026,13.37 17.07,13.37 L19.465,11.749 L19.994,13.37 L23.288,12.841 L23.218,11.872 L22.583,11.872 C22.407,11.608 22.319,11.326 22.319,10.692 z M6.528,13.422 C3.128,13.422 0.01,11.238 0.01,7.433 C0.01,3.082 2.74,1.215 7.444,0.457 C9.117,0.457 10.544,1.056 11.548,1.585 L11.548,4.914 L10.156,4.914 L9.575,3.188 C9.064,2.324 8.184,1.778 7.074,1.778 C4.872,1.778 3.533,3.522 3.533,6.711 C3.533,9.828 4.854,12.101 7.074,12.101 C7.796,12.101 8.166,11.907 8.465,11.696 L8.465,8.525 L6.88,8.296 L6.968,7.239 L10.104,7.292 L12.429,7.239 L12.57,8.296 L11.724,8.525 L11.724,12.048 C10.597,12.664 9.082,13.088 6.528,13.422" fill="#4967A9"/>
    </g>
  </g>
</svg>
