<svg xmlns="http://www.w3.org/2000/svg" width="50.71mm" height="24.21mm" viewBox="0 0 143.76 68.62">
    <path d="M123.73,91.45h85.51c0,12.82-10.59,21.22-23.2,21.22H146.72C134.51,112.67,123.73,104.07,123.73,91.45Z" transform="translate(-67.36 -45.93)" fill="none" stroke="#314e93" stroke-width="3.75"/>
    <path d="M77,65.06a5.45,5.45,0,1,0-4.62,9.87l25,11.61A5.45,5.45,0,1,0,102,76.66Z" transform="translate(-67.36 -45.93)" fill="none" stroke="#314e93" stroke-width="3.75"/>
    <line x1="38.39" y1="38.76" x2="56.73" y2="45.87" fill="none" stroke="#314e93" stroke-width="3.75"/>
    <path class="inner" d="M123.73,91.45h85.51c0,12.82-10.59,21.22-23.2,21.22H146.72c-12.21,0-23-8.6-23-21.22" transform="translate(-67.36 -45.93)" fill="#fff"/>
    <path class="inner" d="M77,65.06a5.45,5.45,0,1,0-4.62,9.87l25,11.61A5.45,5.45,0,1,0,102,76.66Z" transform="translate(-67.36 -45.93)" fill="#fff"/>
    <path d="M123.52,89.58l-16.69-6.47A7.31,7.31,0,0,0,102.75,75l-25-11.6a7.35,7.35,0,0,0-9.75,3.54,7.3,7.3,0,0,0,3.55,9.73l25,11.61a7.37,7.37,0,0,0,8.58-1.77L121.91,93c.81,12.22,11.42,21.58,24.81,21.58H186c14.29,0,25.07-9.93,25.07-23.1V89.58Zm-20.61-6.47a3.61,3.61,0,0,1-4.78,1.73L73.18,73.23a3.56,3.56,0,0,1-1.74-4.74,3.61,3.61,0,0,1,3.27-2.07,3.57,3.57,0,0,1,1.51.34l25,11.6a3.57,3.57,0,0,1,1.74,4.75ZM186,110.8H146.72c-9.83,0-20-6.49-21-17.47h81.59C206.33,103.56,197.69,110.8,186,110.8Z" transform="translate(-67.36 -45.93)" fill="#314e93"/>
    <path d="M149.18,75.48,152.6,77c3.29-7.33,1.39-12.16-.28-16.41-1.58-4-2.94-7.5-.61-13.26l-3.47-1.41c-2.9,7.15-1.05,11.87.59,16S151.82,69.58,149.18,75.48Z" transform="translate(-67.36 -45.93)" fill="#314e93"/>
    <path d="M165.1,75.48,168.52,77c3.28-7.33,1.39-12.16-.28-16.41-1.58-4-3-7.5-.61-13.26l-3.47-1.41c-2.9,7.15-1,11.87.59,16S167.74,69.58,165.1,75.48Z" transform="translate(-67.36 -45.93)" fill="#314e93"/>
    <path d="M181,75.48,184.44,77c3.28-7.33,1.39-12.16-.28-16.41-1.58-4-2.95-7.5-.61-13.26l-3.48-1.41c-2.9,7.15-1,11.87.6,16S183.66,69.58,181,75.48Z" transform="translate(-67.36 -45.93)" fill="#314e93"/>
</svg>