<svg xmlns="http://www.w3.org/2000/svg" width="50.93mm" height="48.68mm" viewBox="0 0 144.38 138">
    <path class="inner" d="M145.59,133.83c.56-1.6,2.85-8.52,3.37-10.17-2.14-.77-4.38-1.34-6.09-1.86-1.07-.32-2.63,2.91-6.7,2.91-1.18,2.37-5.43,13.62-5.69,14.35,1.8.8,3.36.42,5.22,2.28,1.53,1.53,2.14,4.92,2.23,5.36-1.86-.15-7.7-.52-8.7-.52s-13.79.47-14.68.47a36.12,36.12,0,0,0-5.86.47c1-3,2.26-6.5,5.63-6.83,2.18-.21,4.35-.32,5.24-.32a18.9,18.9,0,0,0,3-.56,51.49,51.49,0,0,1,2.68-4.61c.89-1.19,4.31-11.78,4.31-11.78a16.45,16.45,0,0,1-10.73-9.88c-5.45-3-15.25-6.39-23.66-19.33-5.93-9.13-10.73-21.35-11.32-33.56s-1-21.94-1-21.94a5.48,5.48,0,0,1-2.53.53c-2.41,0-4.68-2.67-4.68-7.06a12.33,12.33,0,0,1,.54-3.44H69.88a10,10,0,0,1,4.92-3.85A19.16,19.16,0,0,1,78,19.61s-1.21-3.56-.92-3.87c.58-.62,3.49,1,4.16,1.49a13.38,13.38,0,0,0,1.68-.81c-.19-1.79,0-3.32,1.2-3.57s2.32,2.22,2.55,2.67c.75.15,2.09.52,2.09.52s1.41-1.86,2.51-1.07c.48.35,0,1.72-.33,2.52a24.54,24.54,0,0,1-1.06,2.25c3.56,1.49,9,6,11.09,8.66s4.38,9.61,7.94,14.65,12.51,13.88,21.41,14.47,13.82-.42,21.23-.42,12.75.27,16.31.27,4.44-1.75,5.93-3.53,6.22-5,8.6-6.52,11.86-8.6,14.52-9.79a34.23,34.23,0,0,1,9.49-2.37c1.78,0,2.67,3,2.67,4.45s-1.78,1.78-1.78,1.78A3.91,3.91,0,0,1,209.8,45c0,2.67-3.11,4.74-5.78,5.63a13.32,13.32,0,0,1,0,5.93c-.59,1.78-3.85,5.34-3.85,5.34s2.89-.9,3.85.74c.3.5-2.52,2.22-3,3.56s-3.86,12.54-4.16,13.19-5.33,14.38-5.33,15.12-4,7.27-4.15,8.16-1.63,3-7,6.37-5.34,5.64-7.86,7.41-15.3,7.69-17.23,8.14c-1.42,3.5-1.88,6.42-2.92,9.47a25.39,25.39,0,0,1,4.44.48,8.13,8.13,0,0,1,4.57,1.84c1.92,1.74,2.08,5.18,2.08,5.18l-9.29,0c-1.18,0-11-.12-11.53-.12" transform="translate(-67.06 -11.19)" fill="#fff"/>
    <path d="M106.21,149.19l.92-2.93c.85-2.67,2.41-7.64,7.21-8.11,2.2-.21,4.42-.32,5.4-.32a11.67,11.67,0,0,0,1.76-.31,43.86,43.86,0,0,1,2.43-4.1,98.55,98.55,0,0,0,3.44-9.44,18.05,18.05,0,0,1-9.82-9.67l-1.93-1c-5.68-2.83-14.26-7.11-21.7-18.58-6.81-10.49-11-23-11.58-34.37-.41-8.57-.73-16-.88-19.56-.23,0-.48,0-.74,0-3.16,0-6.53-3.12-6.53-8.91a12.56,12.56,0,0,1,.11-1.55H67.06l1.59-2.8a11.69,11.69,0,0,1,5.13-4.35,20.56,20.56,0,0,1,2.47-3.83c-1-3.12-.9-4-.17-4.74,1.32-1.4,3.73-.43,5.26.41.18-2.83,1.72-3.62,2.73-3.83,2-.42,3.44,1.56,4.17,2.86l.24.06c1.21-1,2.8-1.49,4.18-.49,1.64,1.17.83,3.35.35,4.65-.09.23-.2.5-.32.77a39.55,39.55,0,0,1,10,8.32,36.55,36.55,0,0,1,3.27,6,57.74,57.74,0,0,0,4.69,8.63c3.52,5,12,13.1,19.9,13.63a94.28,94.28,0,0,0,13.08-.12c2.47-.15,5-.3,7.93-.3,4.38,0,8.06.09,11,.17,2,0,3.78.09,5.21.09,2.2,0,2.78-.72,3.92-2.15.17-.23.36-.46.55-.69,1.78-2.14,7.1-5.69,9-6.88.78-.49,2.44-1.67,4.37-3,4.77-3.39,8.56-6,10.33-6.83a35.65,35.65,0,0,1,10.2-2.53c3.21,0,4.54,4.11,4.54,6.31a3.28,3.28,0,0,1-.51,1.8,5.39,5.39,0,0,1,1.24,3.51c0,3.17-2.73,5.51-5.55,6.8a13,13,0,0,1-.3,5.32,12.17,12.17,0,0,1-1.78,3,3.7,3.7,0,0,1,1.62,1.48c.91,1.55-.46,2.79-1.46,3.71a8.09,8.09,0,0,0-1.34,1.4c-.15.46-.7,2.25-1.36,4.36-2.06,6.69-2.65,8.53-2.84,8.94-.4,1-4.77,12.94-5.15,14.49-.06.69-.48,1.55-2.36,4.94-.65,1.17-1.62,2.91-1.81,3.4-.41,2-3,4.48-7.75,7.51a17.55,17.55,0,0,0-5.08,4.61,12.61,12.61,0,0,1-2.67,2.72c-2.4,1.69-13.06,6.69-16.81,8.07-.62,1.67-1,3.23-1.45,4.75-.13.48-.26,1-.4,1.47.77.09,1.41.2,1.86.28l.37.06a9.92,9.92,0,0,1,5.51,2.3c2.42,2.19,2.67,6,2.69,6.46l.09,2h-2l-9.25,0-7.55-.08-3.93,0v-3.75l4,0,7.51.08,7,0a4.29,4.29,0,0,0-1.08-1.91,6.31,6.31,0,0,0-3.57-1.37l-.43-.07a22,22,0,0,0-3.7-.38h-2.63l.85-2.48c.4-1.17.71-2.33,1-3.56a47.74,47.74,0,0,1,1.91-6l.37-.91,1-.21c1.53-.36,14-6.08,16.48-7.81a8.45,8.45,0,0,0,1.88-2,21.24,21.24,0,0,1,6-5.46c5.48-3.51,6.11-5.14,6.11-5.16.09-.58.53-1.42,2.19-4.41.71-1.29,1.79-3.23,2-3.71a1.44,1.44,0,0,0-.05.39c0-1.37,5.43-15.72,5.48-15.84.21-.52,1.75-5.52,2.67-8.5.66-2.15,1.23-4,1.39-4.46a5.14,5.14,0,0,1,1.18-1.82L194,65.61l4.56-5A21.46,21.46,0,0,0,202,56,11.51,11.51,0,0,0,202,51l-.32-1.62,1.57-.52c2.17-.73,4.47-2.32,4.47-3.84a1.94,1.94,0,0,0-1.26-1.77l.32-3.62.2-.07a4.35,4.35,0,0,0-.87-2.4,33,33,0,0,0-8.59,2.19c-1.56.7-6.45,4.17-9.68,6.47-2,1.4-3.68,2.61-4.55,3.16-2.55,1.59-6.89,4.64-8.11,6.1l-.5.62c-1.26,1.59-2.83,3.57-6.85,3.57-1.47,0-3.25,0-5.3-.1-2.94-.07-6.59-.16-10.93-.16-2.79,0-5.29.15-7.7.29a97.54,97.54,0,0,1-13.56.12c-9.23-.62-18.64-9.43-22.72-15.2a62.77,62.77,0,0,1-5-9.19,35.27,35.27,0,0,0-2.84-5.33c-1.91-2.46-7.13-6.73-10.28-8l-1.9-.79,1-1.82.46-.89-.42-.11c-.35-.1-1.39-.38-1.94-.49l-.87-.17-.49-.93-.17-.32c0,.09,0,.19,0,.29l.13,1.28-1.65.84a8.92,8.92,0,0,1-1.46.67l-.92.29-.78-.59a3.5,3.5,0,0,0-.51-.33c.07.2.13.41.2.6l.36,1.07-.76.82a17,17,0,0,0-2.82,4.31l-.31.73-.73.28-.52.22h3.84l-.81,2.46a10.72,10.72,0,0,0-.44,2.84c0,3.19,1.45,5.16,2.78,5.16a3.56,3.56,0,0,0,1.62-.31L85,35.45l.16,2.91c0,.1.39,9.82,1,21.84.52,10.71,4.52,22.56,11,32.5C104,103.32,111.67,107.17,117.3,110c1,.48,1.84.92,2.64,1.35l.62.34.24.66a14.38,14.38,0,0,0,9.37,8.67l2,.48-.61,1.91c-1.31,4-3.64,11-4.58,12.28a46.19,46.19,0,0,0-2.5,4.34l-.39.74-.8.21a18.88,18.88,0,0,1-3.5.62c-.76,0-2.83.09-5,.31-1.32.12-2.2,1.07-3,2.7,1.26-.09,2.32-.11,3-.11.4,0,3.84-.12,6.87-.22,4.34-.15,7.23-.25,7.74-.25.77,0,3.79.18,6.18.34a5.72,5.72,0,0,0-1.06-1.95,4.39,4.39,0,0,0-2.53-1.24,11.48,11.48,0,0,1-2.1-.65l-1.59-.71.58-1.64c.18-.49,4.47-11.93,5.76-14.5l.51-1h1.16a5.94,5.94,0,0,0,4-1.7c.84-.68,1.88-1.52,3.23-1.11l1.64.47c1.39.4,3,.85,4.52,1.41l1.68.61-.53,1.71c-.51,1.63-3.1,9.07-3.89,11.31l-3.53-1.24c.43-1.25,2.26-6.5,3.26-9.44-.87-.27-1.74-.52-2.54-.75l-1.14-.33-.35.28a10,10,0,0,1-5.09,2.45c-1.13,2.6-3.32,8.3-4.44,11.28a7.85,7.85,0,0,1,4.06,2.17c1.55,1.55,2.34,4.26,2.72,6.25l.47,2.43-2.45-.14c-2-.16-7.63-.52-8.51-.52-.49,0-4.27.13-7.61.25-4.07.13-6.57.22-7,.22a34.53,34.53,0,0,0-5.51.44Zm82.92-46.39a.15.15,0,0,1,0,.07A.17.17,0,0,0,189.13,102.8Zm4.14-8.16Zm0,0Z" transform="translate(-67.06 -11.19)" fill="#314e93"/>
</svg>