<svg xmlns="http://www.w3.org/2000/svg" width="35.45mm" height="47.86mm" viewBox="0 0 100.5 135.68">
    <path class="inner" d="M98.72,73.18h81.41s-2.28,41.24-41.84,41.24S98.72,73.18,98.72,73.18" transform="translate(-82.49 -23.11)" fill="#fff"/>
    <path class="inner" d="M170.45,156.91a10.66,10.66,0,1,0-10.66-10.66,10.66,10.66,0,0,0,10.66,10.66" transform="translate(-82.49 -23.11)" fill="#fff"/>
    <path d="M140.83,52.51c0,3.06-2,5.94-6.06,8.55l2,3.14c5.15-3.34,7.77-7.27,7.77-11.69,0-3.33-1.71-6.55-3.36-9.66-1.54-2.89-3-5.62-3-8.13,0-3,2.22-6.33,5.65-8.4L142,23.11c-4.61,2.77-7.47,7.22-7.47,11.61,0,3.45,1.74,6.72,3.42,9.89C139.41,47.44,140.83,50.11,140.83,52.51Z" transform="translate(-82.49 -23.11)" fill="#314e93"/>
    <path d="M119.34,55.19c0,2.57-2.45,4.64-4.51,5.93l2,3.18c5.17-3.25,6.26-6.75,6.26-9.11,0-2.59-1.36-5-2.68-7.4-1.1-2-2.25-4-2.25-5.74s1.42-4.09,4.54-5.68L121,33c-4,2-6.58,5.58-6.58,9,0,2.67,1.39,5.16,2.73,7.56C118.27,51.65,119.34,53.57,119.34,55.19Z" transform="translate(-82.49 -23.11)" fill="#314e93"/>
    <path d="M160.9,55.19c0,2.57-2.45,4.64-4.51,5.93l2,3.18c5.17-3.25,6.26-6.75,6.26-9.11,0-2.59-1.36-5-2.68-7.4-1.1-2-2.25-4-2.25-5.74s1.42-4.09,4.54-5.68L162.55,33c-4,2-6.58,5.58-6.58,9,0,2.67,1.39,5.16,2.72,7.56C159.83,51.65,160.9,53.57,160.9,55.19Z" transform="translate(-82.49 -23.11)" fill="#314e93"/>
    <path d="M170.45,133.71A12.64,12.64,0,0,0,168,134l-8.78-22.44c21-11.14,22.8-37.9,22.82-38.24l.11-2H96.84v1.88a47.42,47.42,0,0,0,.69,6.76h-15v3.75H98.28c2.11,9.06,7.31,21.69,20.14,28.25l-16.87,44.65,3.51,1.33,4.19-11.1h48.69a12.53,12.53,0,1,0,12.51-13.11Zm-65-40.61a52,52,0,0,1-4.72-18h77.36a54.15,54.15,0,0,1-5.72,18c-7,13-18.43,19.52-34,19.52S111.64,106,105.41,93.1Zm52.93,50H110.67l11.18-29.59a45.3,45.3,0,0,0,16.44,2.82,45.91,45.91,0,0,0,17.5-3.19l8.65,22.14A12.56,12.56,0,0,0,158.34,143.07Zm12.11,12a8.79,8.79,0,1,1,8.79-8.78A8.79,8.79,0,0,1,170.45,155Z" transform="translate(-82.49 -23.11)" fill="#314e93"/>
</svg>