<svg xmlns="http://www.w3.org/2000/svg" width="43.74mm" height="34.95mm" viewBox="0 0 124 99.07">
    <path class="inner" d="M103.22,89.58A4.43,4.43,0,0,0,98.78,94l1.85,25.07a22.16,22.16,0,0,0,22.2,22.12h37.81a22.16,22.16,0,0,0,22.2-22.12L184.69,94a4.43,4.43,0,0,0-4.44-4.43Z" transform="translate(-79.73 -44.01)" fill="#fff"/>
    <rect x="60.13" width="3.75" height="25.81" fill="#314e93"/>
    <rect x="45.98" y="10.72" width="3.75" height="25.81" fill="#314e93"/>
    <rect x="74.27" y="10.72" width="3.75" height="25.81" fill="#314e93"/>
    <path d="M196.55,95.29H186.47l.09-1.14V94a6.31,6.31,0,0,0-6.31-6.3h-77A6.32,6.32,0,0,0,96.9,94l.1,1.28H86.92a7,7,0,1,0,0,14h6.33v-3.75H86.92a3.28,3.28,0,1,1,0-6.55H97.27l1.48,20.11a24.07,24.07,0,0,0,24.08,23.93h37.81a24.06,24.06,0,0,0,24.07-23.93L186.2,99h10.35a3.28,3.28,0,1,1,0,6.55h-6.33v3.75h6.33a7,7,0,1,0,0-14ZM181,118.94v.14a20.31,20.31,0,0,1-20.32,20.25H122.83a20.32,20.32,0,0,1-20.33-20.25L100.65,94a2.57,2.57,0,0,1,2.57-2.49h77A2.56,2.56,0,0,1,182.81,94Z" transform="translate(-79.73 -44.01)" fill="#314e93"/>
</svg>