<svg xmlns="http://www.w3.org/2000/svg" width="55.49mm" height="49.49mm" viewBox="0 0 157.29 140.29">
    <path class="inner" d="M107.14,116.18c.48,2.31,1.4,15.14,1.5,18.25L106,117l.49-9.22c2.15,2.85.32,6.7.66,8.37m110.34-41.6c0-3.88-2.63-9-6.23-12.65s-13.37-6.19-20.55-6.19c-8.06,0-19.88,2.88-28.51,2.88s-9.21-.29-17-.29S125.56,57,120.74,54.88a22.85,22.85,0,0,1-9.5-8.93c-1.72-3.31-6.47-10.36-6.47-10.36l3.16-2.16s3.82-4.1,3.82-5-2.31-.86-4-1.3-3.38-1.94-6.84-1.94c-2.76,0-3.74,1.15-3.74,1.15S95,25,92.68,23.29a7.24,7.24,0,0,0-5.18-1.8,7.16,7.16,0,0,0-3.89,1.44c-1.15.86-3.74,2.88-6.33,5.18s-6.69,6-9.57,8.35a12.26,12.26,0,0,0-4.24,8.34c0,2.88,2.87,6.91,4.31,6.91s2-1.15,3.74-1.15,2.88.86,4.9,1.44,4,1.44,5.47,1.44,3.45.57,4.31,4,4.32,13.24,4.32,13.24S92.82,80.78,95.41,90A35.6,35.6,0,0,0,99,98.48h0s2.16,20.87,2.16,28.93-.29,14.24-1.15,18-2,7-2,8.63,1,1,2,1c.83,0,4.11-.2,5.22-.27a8.68,8.68,0,0,0-.47,2c0,1.43,1.15,1.72,2.73,1.72a8,8,0,0,0,5.18-1.72,11.91,11.91,0,0,0,3-4.18l1.59-.72a16,16,0,0,1-1.44-6.91c0-4.17.29-11.8.86-17.84s1.3-9.21,2.45-12.09,4.75-10.36,4.75-10.36,8.34,2,22,2a260.22,260.22,0,0,0,31.86-2.14l1.48-.29c0,.06.76.13.79.19,1.29,2.44,10.65,14.75,11.94,18.64a23.92,23.92,0,0,1,1.3,9.07c0,3.88,0,11.51-.87,14.82s-2,6-2,6.91.29,1.44,2.45,1.44,5.73-4.61,6.3-4.75,1.59-.58,1.44-1.44-1.15-2.45-1.29-4,2-21.58,2-21.58l-1-9.67c2.55,2.25,3.34,5,4.11,6.21,1,1.58,1.59,5,1.59,7.91s-.29,17-.44,18.71a66.08,66.08,0,0,1-2.3,8.92c-.57,1.73,0,2.88,2.16,2.88a7.82,7.82,0,0,0,5.18-2,43.23,43.23,0,0,0,3-3.89s1.3-.14,1.44-.72-1.44-1.58-1.44-5.9.15-15.11.72-18.42,1.73-4.75,2-5.9,1.15-2.45-1-6.33-5.18-7.48-6.19-9.93-1.36-3.45-1.36-5.33a13.74,13.74,0,0,1,1.36-6.47C210.4,90.71,212,88,212,84s.29-4.75.29-4.75c2,.57,5.21-1.16,5.21-4.62" transform="translate(-61.58 -19.85)" fill="#fff"/>
    <path d="M213.16,109.12a30.08,30.08,0,0,1-2.69-4.44c-1-2.4-1.21-3.11-1.21-4.59a11.89,11.89,0,0,1,1.18-5.68l.54-1.18A20.6,20.6,0,0,0,213.45,84a28.17,28.17,0,0,0-.2-3.15,6.3,6.3,0,0,0,3.05-1.22,6.55,6.55,0,0,0,2.58-5.28c0-4.28-2.72-9.86-6.76-13.88s-14.54-6.68-21.8-6.68a105.53,105.53,0,0,0-14,1.41,110.55,110.55,0,0,1-14.41,1.44c-4.38,0-6.67-.07-8.89-.14s-4.23-.14-8-.14c-7.86,0-19.22-1.31-23.6-3.26a20.89,20.89,0,0,1-8.57-8c-1.32-2.52-4.28-7-5.73-9.22a7.69,7.69,0,0,0,1.8-1.32c4.25-4.46,4.25-5.41,4.25-6,0-2.19-2.37-2.56-3.94-2.8-.49-.08-1-.16-1.43-.26a7.87,7.87,0,0,1-1.35-.53,13.12,13.12,0,0,0-5.77-1.38,9.92,9.92,0,0,0-3.77.66c-.82-.55-2-1.34-3.16-2.24a9,9,0,0,0-11.3-.35c-.54.41-3.42,2.58-6.43,5.26l-1.71,1.52c-2.46,2.2-5.51,4.93-7.77,6.73A14.17,14.17,0,0,0,61.58,45c0,3.46,3.32,8.76,6.19,8.76A5.18,5.18,0,0,0,70.34,53a2.19,2.19,0,0,1,1.16-.39,6,6,0,0,1,2.25.61,21,21,0,0,0,2.12.75c.58.17,1.16.36,1.72.54a14.35,14.35,0,0,0,4.24,1c.6,0,1.84,0,2.49,2.59.84,3.34,3.94,12.16,4.32,13.27s2.46,10.58,4.88,19.2a39.52,39.52,0,0,0,11.11,18c1.21,1.21,1.06,2.86.71,5a8.09,8.09,0,0,0-.15,2.9c.48,2.33,1.47,16.43,1.47,18.27,0,2.11-.56,11.21-.79,12.25-.06.22-.4,1.12-.7,1.91-.58,1.53-1,2.79-1.42,3.84-1.54.09-3.24.19-3.77.19.15-.86.47-2.07.8-3.33s.68-2.56,1-4c.8-3.57,1.15-9.21,1.15-18.3,0-8.06-1.88-21-2-21.57l-3.71.54c0,.13,1.93,13.25,1.93,21,0,8.68-.34,14.24-1.06,17.48-.31,1.35-.66,2.68-1,3.84a24,24,0,0,0-1,5.16,3,3,0,0,0,.92,2.36,2.59,2.59,0,0,0,1.76.62,6.91,6.91,0,0,0,.75-.06,2.58,2.58,0,0,1,.4,0c.48,0,1.67-.06,2.84-.13,0,1.35.61,3.58,4.6,3.58A9.82,9.82,0,0,0,113.7,158,12.65,12.65,0,0,0,117,153.8l2.74-1.25-.9-1.76a14.42,14.42,0,0,1-1.22-6c0-4.2.3-11.8.85-17.61.6-6.28,1.33-9.07,2.32-11.53.82-2,3-6.62,4-8.88a113.74,113.74,0,0,0,20.91,1.74,263.77,263.77,0,0,0,32.13-2.15c4.24-.81,7.11-1.56,8.51-1.95a61.33,61.33,0,0,0,8.45,9.07,42,42,0,0,1,7.28,7.53c.72,1.14,1.28,4.16,1.28,6.88,0,2.9-.29,16.85-.43,18.47a65.88,65.88,0,0,1-2,8.45,4,4,0,0,0,.34,3.81,4.11,4.11,0,0,0,3.57,1.52,10,10,0,0,0,6.62-2.56,34.94,34.94,0,0,0,2.76-3.51,2.85,2.85,0,0,0,2.13-1.94,2.76,2.76,0,0,0-.42-2.07,7.94,7.94,0,0,1-.94-4.26c0-5.43.18-15.13.68-18a15.11,15.11,0,0,1,1.32-4.09,9.47,9.47,0,0,0,.64-1.65c0-.11.06-.22.1-.34.49-1.63.8-3.54-1.27-7.32C215.45,112.51,214.24,110.71,213.16,109.12Zm1,11.48c-.06.19-.11.36-.15.53a7,7,0,0,1-.41,1,19.14,19.14,0,0,0-1.61,5c-.72,4.22-.73,18.51-.73,18.65a12.75,12.75,0,0,0,.81,4.83l-.48.69a37.57,37.57,0,0,1-2.77,3.62,6.3,6.3,0,0,1-4,1.45,2.49,2.49,0,0,1-.45,0,2.35,2.35,0,0,1,.1-.37,67.73,67.73,0,0,0,2.17-9.32c.15-1.82.44-16,.44-18.78,0-2.95-.58-6.85-1.86-8.88a45.41,45.41,0,0,0-8.16-8.51c-2.73-2.09-8.62-9-11.26-13.23l-3.17,2c.37.6.8,1.25,1.27,1.91-1.53.4-3.82.94-6.79,1.5a263,263,0,0,1-31.43,2.09,103,103,0,0,1-21.53-2l-1.47-.36-.66,1.37c-.14.3-3.63,7.54-4.79,10.44-1.29,3.22-2,6.75-2.56,12.56-.57,6-.87,13.57-.87,18a19.36,19.36,0,0,0,.91,5.91l-.62.28-.29.68a9.82,9.82,0,0,1-2.43,3.4,6,6,0,0,1-4,1.33,7,7,0,0,1-.82,0c.23-1.18,1.53-4.59,2.1-6.11.46-1.21.71-1.86.81-2.21.39-1.38.93-11.59.93-13.28,0-2.16-1-16.45-1.54-19a8.31,8.31,0,0,1,.17-1.55c.36-2.24.91-5.63-1.76-8.3A35.48,35.48,0,0,1,97.13,89.48c-2.54-9-4.83-19-4.85-19.13l-.06-.2c0-.1-3.43-9.71-4.26-13-1.18-4.73-4.35-5.43-6.13-5.43a13,13,0,0,1-3.07-.78c-.61-.2-1.24-.41-1.87-.58s-1.2-.41-1.75-.63a9.28,9.28,0,0,0-3.64-.88,5.81,5.81,0,0,0-2.93.83,2.54,2.54,0,0,1-.63.29,8.1,8.1,0,0,1-2.61-5,10.5,10.5,0,0,1,3.53-6.86c2.34-1.87,5.44-4.64,7.93-6.86l1.7-1.52c2.9-2.57,5.67-4.67,6.19-5.06a5.35,5.35,0,0,1,2.75-1.06,5.43,5.43,0,0,1,4,1.42c.78.58,1.53,1.12,2.2,1.58l-.42.46L96,29.61c1.32-1.42,2.11-2.27,4.66-2.27a9.55,9.55,0,0,1,4.24,1.05,10.75,10.75,0,0,0,2,.75c.53.13,1.08.22,1.58.3-.65.79-1.5,1.74-2.26,2.54a6.47,6.47,0,0,1-4.43,1.5,13.8,13.8,0,0,1-2.73-.2l-1,3.61a15,15,0,0,0,3.74.34,11.79,11.79,0,0,0,1.62-.11c1,1.44,4.67,7,6.11,9.75a24.42,24.42,0,0,0,10.36,9.69c5,2.22,16.92,3.59,25.13,3.59,3.74,0,5.77.06,7.91.13s4.57.15,9,.15A112.92,112.92,0,0,0,176.86,59a104.84,104.84,0,0,1,13.46-1.37c7.22,0,16.17,2.61,19.16,5.59,3.27,3.26,5.65,8,5.65,11.22A2.74,2.74,0,0,1,214,76.67a2.48,2.48,0,0,1-1.37.52,24.94,24.94,0,0,0-2.31-7A21.39,21.39,0,0,0,206,65l-2.4,2.88a17.69,17.69,0,0,1,3.55,4.22c1.34,2.32,2.6,8.14,2.6,12,0,3-1,5.26-2.12,7.61-.19.41-.38.82-.56,1.23a15.58,15.58,0,0,0-1.51,7.21,14,14,0,0,0,1.48,6,31.68,31.68,0,0,0,3.07,5.12c1.07,1.6,2.19,3.24,3.13,5C214.68,118.88,214.4,119.8,214.16,120.6Z" transform="translate(-61.58 -19.85)" fill="#314e93"/>
    <path d="M199.15,149.67a5.37,5.37,0,0,0-1.87,1.17c-.75.59-3,2.38-3.87,2.38H193c.13-.47.35-1.13.53-1.7.39-1.17.86-2.63,1.27-4.24.91-3.51.91-11.1.91-15.18a25.67,25.67,0,0,0-1.37-9.59c-.9-2.75-3.91-7-6.33-10.5-1.17-1.68-2.28-3.27-2.68-4L182,109.72c.51,1,1.58,2.49,2.93,4.43,2.16,3.08,5.11,7.3,5.84,9.53a22.13,22.13,0,0,1,1.18,8.41c0,3.63,0,11.19-.79,14.25-.38,1.49-.84,2.89-1.2,4a12.08,12.08,0,0,0-.84,3.31c0,2.2,1.44,3.31,4.28,3.31,2,0,4.06-1.5,6.19-3.18.31-.24.7-.55.82-.62a1.27,1.27,0,0,1-.34.13Z" transform="translate(-61.58 -19.85)" fill="#314e93"/>
</svg>