<svg xmlns="http://www.w3.org/2000/svg" width="78.73mm" height="51.31mm" viewBox="0 0 223.17 145.44">
    <path class="inner" d="M221.28,116.61l-11.54-15.3-11.19,4.6s3,11.19,5.48,17.93a15.35,15.35,0,0,1,.31,9.54,56.67,56.67,0,0,0-1.82,6.62c-.34,1.85-1.22,6.25-2.27,7.69s-5.28,7.18-5.93,7.91-.31,2.31.61,2.48a36.7,36.7,0,0,0,6,.09c2.05-.12,4.3-.72,5.09-2.83a37.79,37.79,0,0,0,1.31-4.65,9.53,9.53,0,0,1,2.3.09c.47.2,1.36-.09,1.07-1.21a5.22,5.22,0,0,1,.29-3.44c.51-.95,1.22-2.48,2-4,.65-1.31,1.34-4.9,2.08-7.69s1.13-3.78,1.13-3.78Z" transform="translate(-29.37 -19.58)" fill="#fff"/>
    <path class="inner" d="M240.63,99c0,4.47-2.58,11-2.15,15.84.79,8.72,5.45,10.24,9.22,13-2.4-8.45,3.2-10.38,3.2-16.31,0-9.71-3.6-9.59-3.6-13.25,0-1.82-1.39-7.53-1.39-14.16,0-12.44-4.14-30.25-9.39-38.7-4.91-7.77-10.28-9.59-18-9.59-18.38,0-40.2,7.24-56.07,7.24-17.23,0-28.63-5.77-44.64-5.77-4.12,0-11,.35-14.79.81-3.44-2.38-8.35-4.45-12.1-4.45-2.8,0-6.59.06-8.65.06a11.39,11.39,0,0,1-4.57-1.43,19.56,19.56,0,0,0,.66-5.45c0-3.39-2.72-5.6-3.46-5.6-.47,0-.66.08-1.33,1.26s-1.47,4.63-1.84,5.45-.59.95-1.69.95a9.55,9.55,0,0,1-4.49-1.37c-1.62-1-3.25-2.89-4.43-2.89a4.2,4.2,0,0,0-2.92,1.46A25,25,0,0,1,55.92,28a10.42,10.42,0,0,1-3.59,1.36,13.08,13.08,0,0,0-8.54-3.82c-2.87,0-4.63,2.06-4.63,3.31s.29,1.4,1,2.43S45,36.16,46,37.75a30.6,30.6,0,0,0-3.09,4.91,27.7,27.7,0,0,1-2.05,4,29,29,0,0,1-4,4.69c-2,1.37-5.13,1.59-5.77,4.46a5.86,5.86,0,0,0,.29,3,43.88,43.88,0,0,0,1.83,4.79c1.14,2.29,2.59,3.88,3.77,3.88s2.8.69,5.59.69,4.11-.11,5.6-.11c2.39,2.74,6.39,4.11,12,4.68,1.59.16,2.27,2.45,3.42,5.71.88,2.5,1.18,3.5,1.71,5.48a8.92,8.92,0,0,0,2.4,3.31,11.45,11.45,0,0,0,1.83,5.71c1.14,10.27,3.52,13.15,7.12,18.09s11.51,5.65,11.51,5.65c2.29,1.83,2.51,3.66,3.43,6.63s-.24,6.39.44,9.13a33.58,33.58,0,0,0,1.34,5c.45.92-.12,5-.8,7.31s-.54,8.45-.54,8.45L90.21,155c-.69.68-.46,1.82-1.14,2.74s-3.66,3.42-3.66,4.11,4.57,1.39,5.71,1.39,5.58.43,6.95-.25,2.74-1.6,2.74-3v-4.11a11.66,11.66,0,0,0,3.66.46c1.14-.23-.23-5.25-.46-6.85s-.53-11.66,0-12.11c1.37-1.14,1.6-3.42,1.83-4.79s.68-1.6,1.59-4.57,1.49-12.9,1.49-13.93a15.5,15.5,0,0,1,10.16-3.19c5.82,0,10.5,1.59,17.6,2.68,6.61,1,15.69,4.1,17.6,5.87s2.65,1.62,3.83.59,6.29-1.87,11.15-4.52c7.08-2.06,16.44-7.17,17.87-7.94a23.81,23.81,0,0,1,12.56-2.16c5.46.42,10.27,3.65,13.36,9.36,2,3.69,4.72,7,8.1,13.47s3.66,15.42,3.66,19-1.65,4.43-1.83,6.63c-.91,1.18-3.88,3.1-3.88,4.43s2,1.73,2,1.73l6.51.23c4.25,0,4.77-2.83,4.77-4.44a17.49,17.49,0,0,0-.3-3.1l2.74.3a5,5,0,0,0,.37-1.62c0-.31-1.24-2.58-1.05-4.16a40.3,40.3,0,0,0,.73-7.3c0-10.39-3.24-23.56-3.24-31.52,0-11.78,6.24-19.75,1.33-50.46" transform="translate(-29.37 -19.58)" fill="#fff"/>
    <path class="inner" d="M105,156.75l.75-4.66a10.84,10.84,0,0,0,3-2c1-1.12,1.57-4.39,1.13-9.08s-6.55-19-6.55-19,6.7-13.21,6.7-12.46,10.11-.75,10.11-.75a55.44,55.44,0,0,0-1.49,8,95.07,95.07,0,0,0-.46,12.58,68,68,0,0,0,0,6.85c.23,2.51,1.37,5.71,1.37,6.39s.91,7.08.46,8-1.37-.68-2.52,0-.91,6.4-1.82,7.08-6.72,0-6.72,0Z" transform="translate(-29.37 -19.58)" fill="#fff"/>
    <path d="M250.49,118.2a13.85,13.85,0,0,0,2-6.76c0-6.52-1.57-9.06-2.71-10.91a3.92,3.92,0,0,1-.88-2.29,27.3,27.3,0,0,0-.4-3.41,69.31,69.31,0,0,1-1-10.7c0-13-4.42-31.16-9.66-39.58-5.48-8.66-11.8-10.43-19.59-10.43-9.68,0-20.17,2-30.32,3.84-9.35,1.74-18.17,3.38-25.63,3.38-8.56,0-15.76-1.49-22.73-2.92-6.77-1.39-13.78-2.84-21.81-2.84-4.11,0-10.53.34-14.29.75C100.31,34.23,95.32,32,91,32l-5,0-3.67,0a6.94,6.94,0,0,1-2.4-.6A24.54,24.54,0,0,0,80.33,27c0-4.12-3.23-7.46-5.33-7.46-1.59,0-2.25,1-3,2.21a21.79,21.79,0,0,0-1.41,4c-.14.49-.33,1.14-.44,1.46a8.06,8.06,0,0,1-3.56-1.11A13.73,13.73,0,0,1,65,24.92c-1.23-1-2.39-2-3.78-2a6,6,0,0,0-4.21,2,17.2,17.2,0,0,1-1.61,1.38l-.5.39a6.29,6.29,0,0,1-1.88.72,14.92,14.92,0,0,0-9-3.59c-3.72,0-6.5,2.74-6.5,5.18a4.38,4.38,0,0,0,1.07,3.11l.31.41a30.81,30.81,0,0,0,2.36,2.61c.83.87,1.88,2,2.63,2.83a25.54,25.54,0,0,0-2.43,4l-.39.84a18.4,18.4,0,0,1-1.49,2.85A27.47,27.47,0,0,1,36,50a13.94,13.94,0,0,1-1.64.81c-1.76.76-4.17,1.8-4.82,4.73a7.6,7.6,0,0,0,.35,4l.09.27a44.09,44.09,0,0,0,1.83,4.75c.92,1.83,2.85,4.9,5.44,4.9a7.72,7.72,0,0,1,1.27.2,21,21,0,0,0,4.31.48c1.65,0,2.78,0,3.74-.07l1,0c2.62,2.56,6.64,4,12.48,4.62.46.3,1.17,2.31,1.68,3.77l.25.71c.85,2.4,1.13,3.34,1.66,5.32A8.77,8.77,0,0,0,66,88h0a12.6,12.6,0,0,0,1.81,5.46c1.16,10,3.61,13.36,7,18l.44.6c3.47,4.74,10.14,6,12.22,6.32,1.16,1.06,1.47,2.13,2,4.09.11.4.23.82.37,1.27a12.39,12.39,0,0,1,.21,4.27,15.66,15.66,0,0,0,.21,4.73c.22.89.39,1.63.53,2.26a15.41,15.41,0,0,0,.88,3,21,21,0,0,1-.86,6c-.61,2-.64,6.35-.62,8.19L89,153.47a4.3,4.3,0,0,0-1.08,2.22,2.64,2.64,0,0,1-.23.72c-.17.22-.77.81-1.26,1.29-1.92,1.88-2.76,2.76-2.76,3.93,0,3.22,7.49,3.26,7.57,3.26l1,0c1,0,2,.1,2.89.1a9.08,9.08,0,0,0,3.83-.59c1-.51,3.77-1.88,3.77-4.63V158a7.31,7.31,0,0,0,2.14,0,2.27,2.27,0,0,0,1.45-1c.85-1.28.51-3.33-.15-6.57-.12-.56-.22-1-.27-1.38a88.83,88.83,0,0,1-.18-10.8,9.4,9.4,0,0,0,1.94-5.06l.06-.41a4.65,4.65,0,0,1,.42-1.24,31.45,31.45,0,0,0,1.12-3.06c.85-2.78,1.38-10.58,1.52-13.43a13.58,13.58,0,0,1,8.31-2.32,51.14,51.14,0,0,1,10.4,1.38c2.12.43,4.32.88,6.89,1.27,6.59,1,15.14,4.06,16.56,5.38,1.78,1.64,3.78,2.85,6.31.63a17.61,17.61,0,0,1,2.81-1,46.42,46.42,0,0,0,7.82-3.13c3.19-1,8.82-3.08,17.74-7.87l.25-.13a20.29,20.29,0,0,1,9.17-2c.7,2.65,3.1,11.46,5.22,17.23a13.73,13.73,0,0,1,.29,8.22,55.09,55.09,0,0,0-1.85,6.86c-1,5.43-1.76,6.69-1.91,6.89l-.06.08c-4.58,6.33-5.46,7.46-5.63,7.66a3.57,3.57,0,0,0-.58,3.49,3,3,0,0,0,2.24,2.05,25.07,25.07,0,0,0,3.61.19c.94,0,1.9,0,2.69-.07,4.35-.27,6-2.35,6.62-4a33.13,33.13,0,0,0,1-3.42h.15a2.69,2.69,0,0,0,2.66-.49,2.84,2.84,0,0,0,.8-3,3.43,3.43,0,0,1,.13-2.06c.31-.59.7-1.4,1.13-2.3.27-.56.55-1.16.85-1.76a29.11,29.11,0,0,0,1.5-5.2c.22-1,.45-1.92.68-2.8.68-2.59,1-3.56,1-3.56l-3.5-1.34c0,.11-.43,1.15-1.17,4-.24.91-.47,1.91-.7,2.89a32,32,0,0,1-1.21,4.4c-.31.61-.6,1.23-.87,1.8-.4.84-.76,1.59-1.06,2.15a6.76,6.76,0,0,0-.65,3.51c-.37,0-.83,0-1.39,0l-1.43.09-.29,1.41a37.58,37.58,0,0,1-1.21,4.36c-.13.35-.52,1.41-3.35,1.59a44.49,44.49,0,0,1-4.47,0c.61-.8,2-2.68,5.42-7.39l.06-.08c.58-.8,1.48-2.55,2.55-8.41a55.53,55.53,0,0,1,1.71-6.3,17.39,17.39,0,0,0-.31-10.75C204,118.3,202,111,201,107.51c4.22.84,7.8,3.68,10.2,8.13.86,1.58,1.81,3,2.91,4.73a97.16,97.16,0,0,1,5.17,8.67c3,5.71,3.43,13.74,3.43,18a6.9,6.9,0,0,1-.87,3.45,9.22,9.22,0,0,0-.85,2.32c-.26.26-.62.58-.95.88-1.49,1.31-3,2.66-3,4.37,0,2,1.77,3.21,3.53,3.57l6.86.26c4.16,0,6.64-2.36,6.64-6.3,0-.33,0-.66,0-1l1.79.2.54-1.3a7,7,0,0,0,.5-2.33,3.37,3.37,0,0,0-.36-1.36,7.18,7.18,0,0,1-.7-2.56c.08-.6.16-1.13.25-1.65a30.67,30.67,0,0,0,.5-5.86,130.76,130.76,0,0,0-1.8-18,104.64,104.64,0,0,1-1.44-13.41A55.37,55.37,0,0,1,234.6,98c1.54-8.41,3.47-18.88,0-40.26l-3.7.59c3.32,20.75,1.46,30.86,0,39a59.37,59.37,0,0,0-1.32,11,108.18,108.18,0,0,0,1.47,13.95,126.79,126.79,0,0,1,1.77,17.46,26.58,26.58,0,0,1-.45,5.24c-.09.58-.19,1.15-.27,1.82a8.47,8.47,0,0,0,.73,3.9l-3.25-.35.49,2.5a16.13,16.13,0,0,1,.26,2.72c0,1.53-.49,2.55-2.82,2.55l-6.3-.22-.13,0c.41-.45,1.06-1,1.47-1.39a14,14,0,0,0,1.73-1.7l.34-.44,0-.55a4.89,4.89,0,0,1,.59-1.69,10.58,10.58,0,0,0,1.24-5.07c0-5.65-.67-13.66-3.86-19.76a101.7,101.7,0,0,0-5.34-9c-1.06-1.62-2-3-2.76-4.48-3.33-6.17-8.6-9.83-14.83-10.31a25.63,25.63,0,0,0-13.56,2.38l-.26.14c-8.82,4.73-14.23,6.76-17.21,7.62l-.38.16a43.15,43.15,0,0,1-7.36,3,12.42,12.42,0,0,0-4.1,1.77l-.3.25a6.14,6.14,0,0,1-1-.8c-2.5-2.31-12.29-5.41-18.54-6.33-2.47-.37-4.63-.81-6.71-1.23A54,54,0,0,0,119.13,109a17.43,17.43,0,0,0-11.23,3.53l-.79.56v1c0,1.06-.58,10.69-1.4,13.33a22.89,22.89,0,0,1-1,2.69,7.94,7.94,0,0,0-.67,2.11l-.07.44c-.16,1.05-.41,2.63-1.1,3.2s-1,1.12-1,7.07c0,2.49.16,5.68.3,6.7.06.39.17,1,.3,1.61s.43,2.06.54,3a13.6,13.6,0,0,1-1.68-.35L99,153.26v6.55s0,.44-1.68,1.27c-.75.32-3.85.16-4.87.11-.54,0-1-.05-1.24-.05a18.8,18.8,0,0,1-2.61-.34l.43-.43a19.34,19.34,0,0,0,1.63-1.71,5.38,5.38,0,0,0,.88-2.11,2.16,2.16,0,0,0,.08-.42h0L94,153.74l0-.81c-.05-2.26,0-6.39.46-7.83.3-1,1.67-6.68.67-8.66a13.44,13.44,0,0,1-.63-2.29c-.15-.65-.32-1.42-.55-2.34a12.8,12.8,0,0,1-.1-3.61,15.79,15.79,0,0,0-.37-5.59c-.14-.42-.25-.82-.36-1.2-.69-2.36-1.28-4.39-3.69-6.31l-.44-.35-.55,0c-.07,0-7.11-.71-10.15-4.87l-.44-.61c-3.29-4.5-5.28-7.21-6.32-16.53l0-.37-.32-.58a9.23,9.23,0,0,1-1.45-4.69l-.06-.64-.9-1a6,6,0,0,1-1.5-2c-.55-2.06-.86-3.1-1.75-5.6l-.24-.7c-1.17-3.33-2.09-6-4.75-6.23-5.4-.55-8.82-1.84-10.74-4l-.56-.64h-.85c-.65,0-1.26,0-2,.05-.93,0-2,.06-3.62.06a16.5,16.5,0,0,1-3.58-.41,10.64,10.64,0,0,0-1.93-.27,6.55,6.55,0,0,1-2.15-2.83,40.67,40.67,0,0,1-1.64-4.27l-.09-.27a4,4,0,0,1-.24-1.94c.22-1,.94-1.37,2.65-2.11A15,15,0,0,0,38.13,53l.19-.14a30.64,30.64,0,0,0,4.26-5,20.61,20.61,0,0,0,1.88-3.5l.37-.81a25.55,25.55,0,0,1,2.6-4.18l1-1.47-.7-1.07A41.39,41.39,0,0,0,44,32.56c-.8-.84-1.8-1.89-2-2.21l-.35-.47a4.19,4.19,0,0,1-.29-.42,1.92,1.92,0,0,1,0-.38A2.94,2.94,0,0,1,44,27.59a11.26,11.26,0,0,1,7.15,3.21l.77.83,1.2-.33a11,11,0,0,0,4.15-1.66l.45-.35a20.13,20.13,0,0,0,1.91-1.64c.75-.71,1.16-.9,1.52-.93a9.62,9.62,0,0,1,1.5,1.1,16.25,16.25,0,0,0,2.07,1.52A11.4,11.4,0,0,0,70.15,31a3.19,3.19,0,0,0,3.4-2.06,17.31,17.31,0,0,0,.68-2.1,31.42,31.42,0,0,1,1-3A4.84,4.84,0,0,1,76.58,27,18.23,18.23,0,0,1,76,31.89l-.47,1.45,1.32.76a13,13,0,0,0,5.49,1.67l3.7,0,4.94,0c3,0,7.45,1.65,11,4.1l.58.41.71-.09c3.48-.42,10.27-.8,14.53-.8,7.65,0,14.16,1.34,21.05,2.76,7.15,1.47,14.55,3,23.49,3,7.81,0,16.8-1.67,26.31-3.44,10-1.86,20.31-3.78,29.64-3.78,6.92,0,11.82,1.42,16.41,8.67,4.93,7.92,9.09,25.14,9.09,37.59a74,74,0,0,0,1,11.26c.19,1.27.36,2.37.36,2.85a7.46,7.46,0,0,0,1.44,4.26c1,1.55,2.15,3.48,2.15,8.94a10.42,10.42,0,0,1-1.62,5,14.85,14.85,0,0,0-2.16,7.31c-2.45-1.76-4.39-3.92-4.87-9.19-.21-2.37.44-5.4,1.07-8.34A37.44,37.44,0,0,0,242.29,99h-3.75a34,34,0,0,1-1,6.48c-.69,3.21-1.4,6.54-1.13,9.47.74,8.24,4.89,10.95,8.23,13.12.58.38,1.17.76,1.73,1.17l4.39,3.19-1.49-5.22C248.05,122.88,249.18,120.71,250.49,118.2Z" transform="translate(-29.37 -19.58)" fill="#314e93"/>
    <path d="M121.22,142.43a9.83,9.83,0,0,0-.45-2.23,29.09,29.09,0,0,1-.89-4.29,30.26,30.26,0,0,1,0-4c0-.79.06-1.63.06-2.62,0-.53,0-1,0-1.56a89.65,89.65,0,0,1,.46-10.78l-3.74-.32a92.08,92.08,0,0,0-.47,11.16c0,.5,0,1,0,1.5,0,.94,0,1.74-.06,2.49a34.11,34.11,0,0,0,.06,4.48,31,31,0,0,0,1,4.91c.14.53.31,1.18.33,1.28,0,.27,0,.71.16,1.77.1.89.3,2.76.39,4.13a3,3,0,0,0-1.65.44c-1.37.84-1.6,2.75-1.9,5.18-.07.57-.16,1.34-.26,1.86a34.43,34.43,0,0,1-5-.31l-.49,3.72a38.36,38.36,0,0,0,4.68.36c2.36,0,3-.45,3.26-.68,1-.8,1.22-2.27,1.49-4.49.07-.59.18-1.44.3-2.06a2.31,2.31,0,0,0,3-1.15c.45-.91.42-2.44-.12-7.41C121.29,143.12,121.23,142.61,121.22,142.43Z" transform="translate(-29.37 -19.58)" fill="#314e93"/>
    <path d="M119.84,111.17" transform="translate(-29.37 -19.58)" fill="none" stroke="#c2cade" stroke-width="3"/>
</svg>