<svg xmlns="http://www.w3.org/2000/svg" width="48.9mm" height="36.72mm" viewBox="0 0 138.61 104.1">
    <path class="inner" d="M195.93,93a6.7,6.7,0,0,0-4.51-8.17c-9.7-3.64-27.3-5.91-48.76-5.91-21,0-41,2.06-50.62,5.91-6.22,2.48-4.5,8.17-4.5,8.17" transform="translate(-72.43 -41.49)" fill="#fff"/>
    <path class="inner" d="M206.3,101a3.49,3.49,0,0,0-.79-6.91H77.88c-4.39,0-4.84,6.52-.79,7,3.75.44,10,1,10,1l5.71,27.05c1.93,8.95,6.39,14.64,15,14.64h69.11c8.6,0,11.65-6.79,13.31-14.64l6.2-27.05s6.6-.55,9.88-1.07" transform="translate(-72.43 -41.49)" fill="#fff"/>
    <path d="M205.51,92.18H198c.3-2.85-.64-7.12-5.91-9.09-9.86-3.69-27-5.86-47.24-6V70.92h8.89V67.17H132.21v3.75h8.88v6.15c-21.68.11-40.65,2.4-49.75,6-5.21,2.08-6.15,6.28-5.86,9.07h-7.6a5.38,5.38,0,0,0-5.44,5.22,5,5,0,0,0,4.43,5.51c2.66.31,6.62.68,8.69.87L91,129.48c2.3,10.69,8,16.11,16.82,16.11h69.1c10.4,0,13.56-8.61,15.14-16.09l5.9-25.72c2.12-.19,6.22-.58,8.65-1A5.31,5.31,0,0,0,211,97.05,5.26,5.26,0,0,0,205.51,92.18ZM92.74,86.59c8.9-3.56,28-5.77,49.92-5.77,20.76,0,38.3,2.11,48.11,5.78,3.82,1.44,3.65,4.44,3.43,5.58H89.26C89,91.07,88.88,88.13,92.74,86.59ZM206,99.11c-3.18.51-9.68,1-9.74,1a1.87,1.87,0,0,0-1.67,1.45l-6.21,27.09c-2,9.33-5.31,13.14-11.48,13.14h-69.1c-7,0-11.22-4.18-13.16-13.14L89,101.64a1.87,1.87,0,0,0-1.68-1.48c-.06,0-6.28-.54-10-1a1.37,1.37,0,0,1-1.13-1.58,1.67,1.67,0,0,1,1.7-1.68H205.51c1.44,0,1.73.88,1.77,1.41A1.59,1.59,0,0,1,206,99.11Z" transform="translate(-72.43 -41.49)" fill="#314e93"/>
    <path d="M169.88,68l3.28,1.8c4.05-7.37,1.81-11.49,0-14.81-1.72-3.16-3.09-5.67.77-11.45l-3.12-2.09c-5.11,7.68-2.9,11.75-.94,15.34C171.58,60,172.94,62.46,169.88,68Z" transform="translate(-72.43 -41.49)" fill="#314e93"/>
    <path d="M182.51,70.76l3.29,1.81c4-7.38,1.8-11.5,0-14.81s-3.09-5.67.77-11.46l-3.12-2.08c-5.12,7.67-2.9,11.74-.95,15.33C184.22,62.7,185.57,65.19,182.51,70.76Z" transform="translate(-72.43 -41.49)" fill="#314e93"/>
</svg>