<svg xmlns="http://www.w3.org/2000/svg" width="89.02mm" height="48.27mm" viewBox="0 0 252.33 136.83">
    <path class="inner" d="M253.76,79.46c0-26.84-20.28-41.5-30.58-45.25s-23.4-7.49-44-7.49-37.44,1.88-58.35,3.44S71.06,40.3,57,48.88,41.67,63.67,39.48,61.79s-5.3-.87-9.36-3.43c-1.18-.74-3.43-5.62-3.43-5.62L25,58.55c0,1.56-.43,5.16,0,5.94l8.37,3.85c.12,0,.22,0,.34,0,4.68,0,5.62,1.4,6.4,4.52l-4.09-4.24c-9.31-.24-17.44-9.95-17.44-9.95a30.83,30.83,0,0,0-1.1,6.71c0,2.8,3.44,9.51,6.71,12.17s8.9,3.58,8.9,3.58.62,7.65.62,9.68-1.56,4.05-3.43,5.61-3.9,3.12-4.21,3.9-6.56,4.22-6.56,4.22a8.29,8.29,0,0,0-2.18-.78c-.63,0-.63,3.27-.31,6.08s2.8,3.75,2.8,5.46.94,3.12,1.72,3.12,2-.78,3.9-.78,10.14,2.5,12.8,2.5,4.52-1.25,7.8-1.25,9.83,4.84,26.52,4.84c8.42,0,15.76-2.81,19.81-4.37.16,2.5,2.19,10.3,2.66,11.86s0,9.36-.32,10.45-2.18,6.08-2.18,6.55.31,1.87-1.72,3.9a9.8,9.8,0,0,0-2.49,4.68l1.56.32a5,5,0,0,0,2.68.81c1.56,0,4.34-.35,5.28-.35s2.65-3.43,3.12-4.05,2.18-2,2.65-3.28-.31-3.9-.63-4.84.32-5.46.32-6.55,2.49-3.74,5.92-6.86a8.46,8.46,0,0,0,1.61-2.25,56.33,56.33,0,0,1,3.07,5.05,12.72,12.72,0,0,1,.94,6.09c-.15,2.18-1.72,8.27-2.5,9.36s-3.12,4.84-3.12,5.31,1.91.06,1.91.06.5,1.18,1.21,1.34a9.5,9.5,0,0,0,4.69-.31c1.09-.47,3.74-1.09,3.74-2.81s3.28-3,3.28-7.18-.32-6.24-.32-8.42,1.25-6.09,1.56-7.34,0-4,1.56-5.77,2-2.9,5.47-3v0a126.28,126.28,0,0,0,32.91,4c26.92,0,39.53-5.38,46.48-9.1l.32.2c2.34,2,3,9.05,3,11.71a17.18,17.18,0,0,1-1.88,7.64,15.45,15.45,0,0,0-1.87,5.31c0,.93-4.37,6.55-5.46,7.95s-3.9,4.22-3.74,4.84,2.8-.16,2.8.47,1.56.93,3.28.93,8-1.56,8-2.34,1.71-5.3,3.74-6.24a6.79,6.79,0,0,0,3.43-4.68c.47-1.71.63-5.77.94-8.42a17,17,0,0,1,1.91-6.73c.73-1.24,1.84-3.37,2.85-5.07,2.75,2.64,5.19,5.13,5.77,5.71,1.25,1.25,3.43,2.11,3.43,5.38,0,4.29-2.1,13.27-2.41,14.2a10.91,10.91,0,0,1-3,3.67c-1.4,1.17-3.9,6.94-3.9,6.94l1.95.31a5.13,5.13,0,0,0,1.33,1.17c.47.16,5.15.32,6,.32s4.44-.86,4.52-1.25a30.64,30.64,0,0,1,1.95-3.67c.55-.86,4-4.06,4.21-4.44a3.94,3.94,0,0,0,.55-2.35c0-1.4-.78-4-.78-6.08s2.81-15.6,2.81-19-6-10.85-6-14.9,8.35-11.63,8.35-29.1" transform="translate(-15.22 -25.08)" fill="#fff"/>
    <path d="M260.74,48.5a11.25,11.25,0,0,0-3.35.51,8.35,8.35,0,0,1,2.81-3.85l-2.3-3a11.86,11.86,0,0,0-4.72,9.1,21.08,21.08,0,0,0-3.91,4.22c-6.65-12.08-17.42-19.88-25.63-22.86-10.31-3.75-23.67-7.58-44.55-7.58-15.93,0-29.88,1.14-44.64,2.34-4.43.36-9,.73-13.73,1.09-21,1.57-50,10.06-64.52,18.92A66.33,66.33,0,0,0,42.08,58.64c-.56.57-1.17,1.19-1.57,1.53a10,10,0,0,0-4.22-1.52,12.92,12.92,0,0,1-4.9-1.71,23.08,23.08,0,0,1-2.78-4.84l-2.12-4.58L23.38,58.41v.26a22.81,22.81,0,0,0,.18,3,21.91,21.91,0,0,1-3.07-3.82l-2.23-3.84-1.2,4.27a33,33,0,0,0-1.16,7.19c0,3.63,3.87,10.74,7.39,13.59a22.21,22.21,0,0,0,8.3,3.66c.18,2.28.51,6.69.51,8.1,0,1.17-1,2.72-2.75,4.15l-1,.79c-2,1.62-3.12,2.59-3.63,3.52a51.78,51.78,0,0,1-5,3.12,6,6,0,0,0-2.1-.55,2.07,2.07,0,0,0-1.55.7c-.32.36-1.29,1.44-.62,7.44a7.76,7.76,0,0,0,2.11,4.33,5.21,5.21,0,0,1,.68.91c0,2.7,1.64,5,3.59,5a5.6,5.6,0,0,0,1.7-.35,7,7,0,0,1,2.19-.43,47.29,47.29,0,0,1,5,1A44.84,44.84,0,0,0,38.49,122a15.19,15.19,0,0,0,3.94-.63,14.1,14.1,0,0,1,3.84-.61,14.69,14.69,0,0,1,3.52,1,64,64,0,0,0,22.95,3.84A53.14,53.14,0,0,0,91,121.88c.68,3.6,2.09,8.86,2.37,9.78.32,1.19,0,8.22-.32,9.36-.11.39-.49,1.48-.87,2.53-1.27,3.61-1.38,4-1.38,4.52,0,.08,0,.16,0,.27,0,.37.06,1.06-1.17,2.29a11.72,11.72,0,0,0-3,5.66l-.31,1.81,3,.61a7,7,0,0,0,3.38.91c1,0,2.25-.12,3.4-.21.75-.07,1.53-.14,1.86-.14,1.65,0,2.73-1.62,4.19-4.09.18-.31.33-.57.42-.7s.31-.33.54-.57a10.05,10.05,0,0,0,2.37-3.16c.61-1.64,0-4.15-.58-6a32.06,32.06,0,0,1,.22-3.85c.09-.92.15-1.55.16-2s1-1.71,5.31-5.63a14,14,0,0,0,2.89-4.5c1.63-3.41,3-6.36,8.77-6.36a30.63,30.63,0,0,1,4.48.36c-.2.21-.4.43-.59.66l-.57.65c-1.55,1.7-1.74,4-1.86,5.48a9.62,9.62,0,0,1-.12,1c-.06.24-.15.57-.26,1a28.12,28.12,0,0,0-1.34,6.72c0,1,.06,1.87.12,2.92.09,1.42.19,3,.19,5.4a5.6,5.6,0,0,1-1.71,3.91,5,5,0,0,0-1.53,3.06,7.12,7.12,0,0,1-1.82.87l-.75.28a7.63,7.63,0,0,1-3.22.25,1.82,1.82,0,0,1-.15-.27l-.49-1.17c.54-.88,1.13-1.8,1.49-2.3,1.13-1.58,2.66-8.06,2.82-10.19a14.57,14.57,0,0,0-1.09-6.92l-3.42,1.56a10.88,10.88,0,0,1,.77,5.09,37.49,37.49,0,0,1-2.13,8.28s-3.44,4.86-3.44,6.32a2,2,0,0,0,.76,1.58,2.59,2.59,0,0,0,2.06.51,3.22,3.22,0,0,0,1.75,1.13,11.15,11.15,0,0,0,5.77-.42l.55-.21c1.38-.5,4.22-1.53,4.29-4.19a6.44,6.44,0,0,1,.66-.86,9.25,9.25,0,0,0,2.58-6.31c0-2.48-.11-4.23-.2-5.64-.06-1-.11-1.83-.11-2.68a28.1,28.1,0,0,1,1.2-5.71l.29-1.06a10.9,10.9,0,0,0,.22-1.63c.09-1.12.2-2.51.89-3.26l.64-.73c1-1.18,1.35-1.57,3.45-1.65l0-.31,1,.24a126.28,126.28,0,0,0,31.78,3.69c25.86,0,38.68-4.87,46-8.64,1.19,1.77,1.91,6.62,1.91,9.74a15.31,15.31,0,0,1-1.62,6.68,18.22,18.22,0,0,0-2,5.84c-.19.41-1.07,1.95-5,7-.3.39-.79.94-1.3,1.53-2.17,2.47-3,3.53-2.71,4.85.45,1.82,2.42,1.71,3.37,1.65h0c.69.67,2,1.16,4.41,1.16.1,0,9.49-.82,9.69-4.08.16-1,1.6-4.12,2.59-4.58,2.13-1,3.61-3,4.39-5.84a38.1,38.1,0,0,0,.69-5.58c.09-1.07.18-2.14.28-3a15,15,0,0,1,1.64-5.94l-3.25-1.88a18.36,18.36,0,0,0-2.11,7.38c-.11.94-.2,2-.29,3.17a38.66,38.66,0,0,1-.58,4.9,4.93,4.93,0,0,1-2.35,3.42c-2.29,1.06-4,4.79-4.58,6.83a25.75,25.75,0,0,1-6.12,1.48,7.93,7.93,0,0,1-1.65-.14,1.8,1.8,0,0,0-.33-.4,2.2,2.2,0,0,0-.68-.44l.4-.46c.55-.63,1.08-1.23,1.45-1.71,5.75-7.45,5.75-8.25,5.75-9a15,15,0,0,1,1.62-4.37,19,19,0,0,0,2.06-8.44c0-.09,0-7.57-2.37-11.52l.41-.23c.61-.34,1.16-.65,1.67-.92l.4-.2a9.28,9.28,0,0,1,2.58,1c1,.45,4,2.6,13.19,11.92l.46.46a12.41,12.41,0,0,0,1.05.91c1.1.88,1.83,1.46,1.83,3.12,0,4-2,12.65-2.32,13.56a9.77,9.77,0,0,1-2.46,2.8c-1.62,1.35-3.79,6.17-4.41,7.62l-1,2.21,3.68.59a4.46,4.46,0,0,0,1.67,1.2,54.72,54.72,0,0,0,6.59.41c.06,0,5.63-.37,6.32-2.6a35.1,35.1,0,0,1,1.72-3.16c.27-.39,1.69-1.8,2.45-2.56a13.2,13.2,0,0,0,1.79-1.92,5.84,5.84,0,0,0,.81-3.3,17.21,17.21,0,0,0-.37-2.83,20.83,20.83,0,0,1-.41-3.23c0-.72.59-4.09,1.1-7.06a105.27,105.27,0,0,0,1.7-11.91c0-2.11-1.4-4.72-3-7.73-1.39-2.57-3-5.49-3-7.12,0-.85.86-2.5,1.85-4.4,2.58-4.93,6.48-12.38,6.48-24.59a49.39,49.39,0,0,0-4.21-20.13,28.31,28.31,0,0,1,2.64-3.56h0c1.21,3.51,3.83,5.77,6.68,5.77,4.28,0,7-2.4,7-6.13C267.55,51.3,264.81,48.5,260.74,48.5ZM245.6,102.36c-1.32,2.54-2.28,4.37-2.28,6.14,0,2.58,1.73,5.79,3.41,8.9,1.15,2.13,2.58,4.79,2.58,5.95,0,1.77-.91,7-1.64,11.27a73.72,73.72,0,0,0-1.16,7.7,23,23,0,0,0,.47,3.89,16.38,16.38,0,0,1,.31,2.17,2.44,2.44,0,0,1-.22,1.27c-.21.23-.79.81-1.27,1.29a27.28,27.28,0,0,0-3,3.2s-1.21,2-1.84,3.33a18.3,18.3,0,0,1-3,.7c-.83,0-4.24-.13-5.32-.23a8.11,8.11,0,0,1-.56-.59l-.45-.53-.19,0a19,19,0,0,1,2.35-4,12.53,12.53,0,0,0,3.62-4.5c.38-1.14,2.51-10.22,2.51-14.75a7.15,7.15,0,0,0-3.23-6,8.09,8.09,0,0,1-.75-.64l-.45-.45c-7.45-7.51-12.11-11.65-14.24-12.66-3.22-1.53-4.38-1.8-6.36-.74-.53.28-1.11.61-1.74,1-6.3,3.56-18,10.17-47.9,10.17a121,121,0,0,1-30.93-3.6,52.7,52.7,0,0,0-12-1.84c-8.1,0-10.44,4.91-12.15,8.5a11.48,11.48,0,0,1-2,3.33c-6,5.47-6.54,7.07-6.54,8.23,0,.28-.07,1.09-.14,1.81-.27,2.94-.37,4.42-.07,5.31a9.21,9.21,0,0,1,.65,3.57,8.43,8.43,0,0,1-1.53,1.85,11.16,11.16,0,0,0-.87.95c-.17.24-.38.58-.65,1.05a21.25,21.25,0,0,1-1.48,2.26c-.45,0-1,.07-1.66.13-1.07.09-2.29.2-3.08.2a3.2,3.2,0,0,1-1.59-.46h0l-.21-.15a7.42,7.42,0,0,1,1.38-2c2.28-2.28,2.31-4.18,2.27-5.06.16-.59.78-2.34,1.16-3.42s.8-2.25.94-2.74c.36-1.28.91-9.44.3-11.48-.48-1.61-2.43-9.15-2.57-11.39l-.16-2.55-2.38.92c-3.85,1.47-11,4.23-19.11,4.23A60.36,60.36,0,0,1,51,118.15,15.57,15.57,0,0,0,46.27,117a17.55,17.55,0,0,0-4.78.73,12.09,12.09,0,0,1-3,.51,48.59,48.59,0,0,1-6.93-1.35,34,34,0,0,0-5.84-1.14,10.49,10.49,0,0,0-3.32.6l-.18.06a2.8,2.8,0,0,1-.23-1.11A5.15,5.15,0,0,0,20.44,112a4.38,4.38,0,0,1-1.27-2.33,33.1,33.1,0,0,1-.19-3.4l.86.43.86-.47c6.52-3.58,7.1-4.47,7.35-5.06a23.27,23.27,0,0,1,2.72-2.42l1-.81c2.65-2.2,4.11-4.7,4.11-7,0-2.08-.61-9.48-.63-9.8l-.12-1.45-1.44-.24s-5.17-.89-8-3.19-6-8.58-6-10.67a16.52,16.52,0,0,1,.19-2.25c2.74,3.08,7.55,7.08,14.13,7.08,3.79,0,4,.78,4.57,3.09l3.63-.91c-1-3.84-2.55-5.93-8.2-5.93a13.88,13.88,0,0,1-8.48-3.16l2-1.18a11.52,11.52,0,0,1-.37-3.32l.3-1.06a7.46,7.46,0,0,0,1.9,2.2,16.63,16.63,0,0,0,6.25,2.27,5.89,5.89,0,0,1,2.87,1c2.33,2,4.35-.07,6.31-2.06A63.12,63.12,0,0,1,58.15,50.63C72,42.17,100.8,33.75,121,32.25c4.76-.36,9.32-.73,13.76-1.09,14.68-1.2,28.55-2.33,44.33-2.33,20.3,0,33.26,3.72,43.28,7.35,8.14,3,29.28,16.51,29.28,43.33C251.65,90.8,248,97.76,245.6,102.36Zm14.91-44.51c-1.21,0-2.46-1.3-3.13-3.24A8.55,8.55,0,0,1,257,53.2a7.69,7.69,0,0,1,3.71-1c2,0,3.06,1.15,3.06,3.22C263.8,56.06,263.8,57.85,260.51,57.85Z" transform="translate(-15.22 -25.08)" fill="#314e93"/>
    <path d="M212,117.21" transform="translate(-15.22 -25.08)" fill="none" stroke="#2f52a0" stroke-width="8.92"/>
</svg>