<?xml version="1.0" encoding="utf-8"?>
<!-- Generator: Adobe Illustrator 24.3.0, SVG Export Plug-In . SVG Version: 6.00 Build 0)  -->
<svg version="1.1" id="Ebene_1" xmlns="http://www.w3.org/2000/svg" xmlns:xlink="http://www.w3.org/1999/xlink" x="0px" y="0px"
	 viewBox="0 0 100 26" style="enable-background:new 0 0 100 26;" xml:space="preserve">
<style type="text/css">
	.st0{fill-opacity:0;}
	.st1{fill:#314E92;}
</style>
<g id="Background">
	<rect y="0" class="st0" width="100" height="26"/>
</g>
<g id="Layer_1">
	<g>
		<path class="st1" d="M35.8,25.4L35.8,25.4l-2.3-3.9l2-2.3l0.1-0.1h-0.1h-0.4h0l0,0L31.6,23v-3.8v0h0h-0.3h0v0v6.2v0h0h0.3h0v0
			v-1.8l1.6-1.8l2.1,3.6l0,0h0H35.8L35.8,25.4z M43.3,25.4L43.3,25.4v-0.3v0h0h-3.7v-2.6h3.3h0v0v-0.3v0h0h-3.3v-2.5h3.7h0v0v-0.3v0
			h0h-4.1h0v0v6.2v0h0H43.3L43.3,25.4z M47.2,22.4v-2.9h2.1c0.5,0,1,0.2,1.2,0.5c0.2,0.2,0.4,0.6,0.4,1c0,0.7-0.4,1.4-1.6,1.4H47.2z
			 M51.3,25.4L51.3,25.4l-1.4-2.7c0.5-0.1,0.8-0.3,1.1-0.7c0.2-0.3,0.3-0.7,0.3-1.1c0-0.5-0.2-0.9-0.4-1.2c-0.4-0.4-0.9-0.6-1.6-0.6
			h-2.5h0v0v6.2v0h0h0.3h0v0v-2.6h2.2l1.4,2.6l0,0h0H51.3L51.3,25.4z M60.8,25.4L60.8,25.4v-6.2v0h0h-0.5h0l0,0l-2.4,3.6l-2.4-3.6
			l0,0h0h-0.5h0v0v6.2v0h0h0.3h0v0v-5.7l2.5,3.7l0,0l0,0l2.5-3.7v5.7v0h0H60.8L60.8,25.4z M65.1,23.3l1.4-3.7l1.4,3.7H65.1z
			 M69.2,25.4L69.2,25.4l-2.4-6.2l0,0h0h-0.4h0l0,0l-2.4,6.2l0,0h0.1h0.4h0l0,0l0.7-1.7H68l0.7,1.7l0,0h0H69.2L69.2,25.4z
			 M72.7,22.4v-2.9h2.1c0.5,0,1,0.2,1.2,0.5c0.2,0.2,0.4,0.6,0.4,1c0,0.7-0.4,1.4-1.6,1.4H72.7z M76.8,25.4L76.8,25.4l-1.4-2.7
			c0.5-0.1,0.8-0.3,1.1-0.7c0.2-0.3,0.3-0.7,0.3-1.1c0-0.5-0.2-0.9-0.4-1.2c-0.4-0.4-0.9-0.6-1.6-0.6h-2.5h0v0v6.2v0h0h0.3h0v0v-2.6
			h2.2l1.4,2.6l0,0h0H76.8L76.8,25.4z M85,25.4L85,25.4l-2.3-3.9l2-2.3l0.1-0.1h-0.1h-0.4h0l0,0L80.8,23v-3.8v0h0h-0.3h0v0v6.2v0h0
			h0.3h0v0v-1.8l1.6-1.8l2.1,3.6l0,0h0H85L85,25.4z M17,25.5c0.7,0,1.3-0.2,1.7-0.6c0.5-0.4,0.7-1,0.7-1.8v-3.9v0h0H19h0v0v3.9
			c0,0.6-0.2,1.1-0.6,1.5c-0.3,0.3-0.8,0.5-1.4,0.5c-0.5,0-1-0.2-1.4-0.5c-0.4-0.4-0.6-0.9-0.6-1.5v-3.9v0h0h-0.3h0v0v3.9
			c0,0.7,0.2,1.4,0.7,1.8C15.8,25.3,16.4,25.5,17,25.5 M25.8,25.5c-0.9,0-1.7-0.3-2.2-0.9c-0.6-0.6-0.8-1.4-0.8-2.4
			c0-0.9,0.3-1.7,0.9-2.3c0.6-0.6,1.3-0.9,2.2-0.9c0.7,0,1.4,0.2,1.9,0.6l0,0l0,0L27.5,20l0,0l0,0c-0.5-0.3-1.1-0.5-1.7-0.5
			c-1.6,0-2.7,1.1-2.7,2.8c0,0.9,0.3,1.6,0.7,2.1c0.5,0.5,1.1,0.8,1.9,0.8c0.7,0,1.4-0.2,1.8-0.7l0,0l0,0l0.2,0.2l0,0l0,0
			C27.3,25.3,26.6,25.5,25.8,25.5"/>
		<path class="st1" d="M94.3,13.4l2.2-0.5l2.5-7.2l0.9-0.2l-0.1-1l-1.3,0.1L97,4.5l-0.1,1l0.8,0.2l-1.8,5.7l-0.1-1.6l-1.4-4.2
			l0.8-0.2l-0.1-1l-2,0.1l-2.5-0.1l-0.1,1l0.7,0.2l0.4,1l-1.7,4.7l-0.1-1.6l-1.4-4.2l0.8-0.2l-0.1-1l-2,0.1l-2.5-0.1l-0.1,1l0.7,0.2
			l3.1,7.6l2.2-0.5l1.9-5.2L92.5,9L94.3,13.4z M78.7,8c0-2,0.5-2.6,1.1-2.6c0.7,0,1.4,1.2,1.4,4.2c0,2-0.5,2.6-1,2.6
			C79.4,12.2,78.7,11,78.7,8 M80.4,4.3c-2.5,0.6-4.9,1.7-4.9,4.8c0,2.6,1.8,4.3,4,4.3c2.6-0.6,5-1.7,5-4.8
			C84.4,5.9,82.6,4.3,80.4,4.3 M75.2,13.1l0.2-1l-0.7-0.2l-2.9-3.6L71.1,8L74,5.7l1.1-0.2l-0.1-1l-1.8,0.1l-2-0.1v1l1.2,0.2
			l-2.8,2.2l-0.5,0.3V0.5l-1.2,0.1L65,1.1l0.1,1l1,0v9.9l-0.9,0.2l0.1,1l2-0.1l2.2,0.1l0.1-1l-0.5-0.2V8.4l0.3,0.9l2.6,3.8l1.3-0.1
			L75.2,13.1z M60.8,4.5l-1.1,0.1L57.3,5l0.1,1l0.9,0v5.9l-0.9,0.2l0.1,1l2.4-0.1l3.3,0.1l0.1-1l-1.9-0.2V8.5l0.2-0.2
			c0.4-0.5,0.7-0.8,1.1-1.1h2.1V4.4h-1.8l-1.8,3.1L60.8,4.5z M51.4,7.9c0-1.5,0.4-2.3,1.1-2.3c0.7,0,1,0.8,1,2.2L51.4,7.9z
			 M56.3,8.8V7.7c0-1.9-1.1-3.4-3.6-3.4c-3.8,1.1-4.4,3.1-4.4,4.9c0,2.4,1.8,4.2,4.4,4.2c1.6-0.5,2.5-1,3.5-1.9l-0.5-0.9
			c-0.4,0.3-1.3,0.7-2.2,0.7c-1.3,0-2.1-1.1-2.2-2.4H56.3z M39.9,6.4V1.9l1.1-0.2l-0.1-1l-2.7,0.1l-2.8-0.1l-0.1,1l1.2,0.2v10
			l-1.2,0.2l0.1,1l2.8-0.1l2.7,0.1l0.1-1l-1.1-0.2v-5l0.4,0.8l4.2,5.4l2.4-0.1l1.5,0.1l0.1-1l-0.9-0.2L43,6.7l-1-0.4l4.8-4.4
			l1.3-0.2l-0.1-1l-2.3,0.1l-2-0.1l-0.1,1L45,1.9l-4.5,4.2L39.9,6.4z M24.9,6v4.8c0,2.1,1.9,2.5,3.2,2.5l2.5-1.3l-0.4-0.9
			c-0.5,0.3-0.9,0.4-1.4,0.4c-0.5,0-0.9-0.4-0.9-1.1V6h2.2V5h-2.2V2.3h-1l-1.9,1.4v1.3h-0.8l-0.7,0.8V6H24.9z M22.3,4.5l-1.5,0.1
			l-2.4,0.6l0.1,1L19.3,6v4.7L19,10.9c-0.3,0.2-0.6,0.4-0.9,0.4c-0.7,0-0.9-0.4-0.9-1V4.5l-1.5,0.1l-2.4,0.6l0.1,1L14.1,6v4.7
			c0,2.1,0.9,2.6,2.9,2.6l2.4-1.6l0.5,1.6l3.3-0.5l-0.1-1h-0.6c-0.2-0.3-0.3-0.5-0.3-1.2V4.5z M6.5,13.4c-3.4,0-6.5-2.2-6.5-6
			c0-4.4,2.7-6.2,7.4-7c1.7,0,3.1,0.6,4.1,1.1v3.3h-1.4L9.6,3.2C9.1,2.3,8.2,1.8,7.1,1.8c-2.2,0-3.5,1.7-3.5,4.9
			c0,3.1,1.3,5.4,3.5,5.4c0.7,0,1.1-0.2,1.4-0.4V8.5L6.9,8.3L7,7.2l3.1,0.1l2.3-0.1l0.1,1.1l-0.8,0.2V12
			C10.6,12.7,9.1,13.1,6.5,13.4"/>
	</g>
</g>
</svg>
